<?xml version="1.0" standalone="no"?>
<!DOCTYPE svg PUBLIC "-//W3C//DTD SVG 20010904//EN"
 "http://www.w3.org/TR/2001/REC-SVG-20010904/DTD/svg10.dtd">
<svg id="sinhack" version="1.0" xmlns="http://www.w3.org/2000/svg"
 width="400.000000pt" height="400.000000pt" viewBox="0 0 400.000000 400.000000"
 preserveAspectRatio="xMidYMid meet">

<g transform="translate(0.000000,400.000000) scale(0.100000,-0.100000)"
fill="#000000" stroke="none">
<path d="M0 2000 l0 -2000 2000 0 2000 0 0 2000 0 2000 -2000 0 -2000 0 0
-2000z m2137 1057 c63 -33 93 -66 200 -222 49 -71 130 -187 179 -258 49 -70
97 -141 108 -157 36 -59 17 -171 -35 -208 -11 -7 -19 -17 -19 -23 0 -5 26 -35
58 -68 32 -32 72 -85 89 -117 17 -33 68 -176 113 -319 75 -239 81 -265 77
-325 -10 -159 -128 -270 -287 -270 l-71 0 6 83 c8 109 24 385 31 522 5 100 4
113 -15 143 -40 62 -40 62 -571 62 -457 0 -483 -1 -519 -20 -59 -30 -75 -74
-67 -179 8 -104 36 -556 36 -591 l0 -25 -77 5 c-124 10 -199 57 -255 163 -18
34 -23 58 -22 122 0 67 8 104 48 230 129 410 139 430 236 526 l57 56 -24 23
c-53 51 -73 144 -43 200 35 65 399 561 442 602 30 30 67 54 96 63 66 21 167
13 229 -18z m338 -1211 c64 -27 69 -46 62 -234 -11 -263 -27 -485 -39 -515 -6
-15 -22 -37 -36 -47 -24 -19 -42 -20 -459 -20 -420 0 -436 1 -463 20 -37 26
-47 62 -54 190 -4 58 -11 177 -16 265 -15 238 -15 268 6 300 35 53 42 54 522
55 360 0 449 -3 477 -14z m28 -867 c27 -14 37 -28 37 -51 0 -17 -32 -18 -540
-18 -527 0 -540 0 -540 19 0 11 12 29 26 40 26 21 36 21 511 21 346 0 491 -3
506 -11z"/>
<path d="M1780 2675 c-41 -22 -49 -52 -49 -180 1 -127 6 -151 54 -228 103
-166 121 -180 226 -175 79 4 127 34 160 101 12 23 37 66 58 96 l36 53 3 138
c4 154 -2 174 -51 195 -29 12 -36 11 -82 -13 -68 -35 -171 -35 -266 0 -56 21
-71 23 -89 13z"/>
<path d="M1712 1788 c-7 -7 -12 -17 -12 -22 0 -6 -14 -19 -30 -28 -21 -12 -30
-25 -30 -42 0 -30 33 -56 61 -49 14 4 31 -5 54 -27 l34 -33 36 28 37 27 -36
37 c-25 26 -36 46 -36 67 0 35 -16 54 -45 54 -12 0 -26 -5 -33 -12z"/>
<path d="M2220 1785 c-7 -9 -10 -27 -7 -44 5 -23 0 -34 -29 -62 -18 -18 -34
-36 -34 -39 0 -3 14 -17 31 -29 l31 -23 33 32 c23 22 40 31 54 27 11 -2 29 2
41 10 27 19 24 64 -6 77 -11 5 -28 22 -37 38 -18 31 -56 38 -77 13z"/>
<path d="M1925 1626 c-50 -18 -121 -95 -135 -144 -22 -81 -7 -128 50 -152 25
-10 30 -18 30 -46 0 -43 12 -46 150 -42 l105 3 3 37 c3 29 9 38 33 49 48 19
59 36 59 88 0 71 -43 148 -101 184 -57 35 -136 44 -194 23z m33 -124 c30 -39
0 -102 -50 -102 -26 0 -58 36 -58 64 0 53 75 80 108 38z m155 17 c28 -15 37
-28 37 -58 0 -55 -61 -80 -100 -41 -39 39 -19 95 38 109 2 1 13 -4 25 -10z
m-93 -168 c16 -32 12 -41 -20 -41 -16 0 -30 5 -30 11 0 16 20 49 30 49 5 0 14
-9 20 -19z"/>
<path d="M1761 1266 c-27 -28 -39 -34 -61 -30 -59 12 -86 -68 -30 -89 18 -7
30 -19 30 -29 0 -26 37 -43 66 -29 19 8 24 18 24 49 0 27 7 45 23 60 18 17 22
30 19 55 -4 29 -17 46 -33 47 -3 0 -20 -16 -38 -34z"/>
<path d="M2187 1293 c-4 -3 -7 -17 -7 -29 0 -13 -5 -26 -11 -30 -7 -4 1 -19
21 -39 18 -19 29 -38 25 -45 -11 -18 4 -58 25 -65 24 -8 57 9 64 33 3 9 16 22
28 27 33 14 37 69 8 85 -12 7 -32 9 -44 6 -17 -4 -31 3 -56 29 -35 36 -42 40
-53 28z"/>
</g>
</svg>
